HIERARCHY
ROOT hip
{
	OFFSET 0.000000 0.000000 0.000000
	CHANNELS 6 Xposition Yposition Zposition Xrotation Zrotation Yrotation 
	JOINT abdomen
	{
		OFFSET 0.000000 3.422050 0.000000
		CHANNELS 3 Xrotation Zrotation Yrotation 
		JOINT chest
		{
			OFFSET 0.000000 8.486693 -0.684411
			CHANNELS 3 Xrotation Zrotation Yrotation 
			JOINT neck
			{
				OFFSET 0.000000 10.266162 -0.273764
				CHANNELS 3 Xrotation Zrotation Yrotation 
				JOINT head
				{
					OFFSET 0.000000 3.148285 0.000000
					CHANNELS 3 Xrotation Zrotation Yrotation 
					End Site
					{
						OFFSET 0.000000 3.148289 0.000000
					}
				}
			}
			JOINT lCollar
			{
				OFFSET 3.422053 6.707223 -0.821293
				CHANNELS 3 Yrotation Zrotation Xrotation 
				JOINT lShldr
				{
					OFFSET 3.285171 0.000000 0.000000
					CHANNELS 3 Zrotation Yrotation Xrotation 
					JOINT lForeArm
					{
						OFFSET 10.129278 0.000000 0.000000
						CHANNELS 3 Yrotation Zrotation Xrotation 
						JOINT lHand
						{
							OFFSET 8.486692 0.000000 0.000000
							CHANNELS 3 Zrotation Yrotation Xrotation 
							End Site
							{
								OFFSET 4.106464 0.000000 0.000000
							}
						}
					}
				}
			}
			JOINT rCollar
			{
				OFFSET -3.558935 6.707223 -0.821293
				CHANNELS 3 Yrotation Zrotation Xrotation 
				JOINT rShldr
				{
					OFFSET -3.148289 0.000000 0.000000
					CHANNELS 3 Zrotation Yrotation Xrotation 
					JOINT rForeArm
					{
						OFFSET -10.266159 0.000000 0.000000
						CHANNELS 3 Yrotation Zrotation Xrotation 
						JOINT rHand
						{
							OFFSET -8.349810 0.000000 0.000000
							CHANNELS 3 Zrotation Yrotation Xrotation 
							End Site
							{
								OFFSET -4.106464 0.000000 0.000000
							}
						}
					}
				}
			}
		}
	}
	JOINT lThigh
	{
		OFFSET 5.338403 -1.642589 1.368821
		CHANNELS 3 Xrotation Zrotation Yrotation 
		JOINT lShin
		{
			OFFSET -2.053232 -20.121670 0.000000
			CHANNELS 3 Xrotation Zrotation Yrotation 
			JOINT lFoot
			{
				OFFSET 0.000000 -19.300380 -1.231939
				CHANNELS 3 Xrotation Yrotation Zrotation 
				End Site
				{
					OFFSET 0.000000 -2.463878 4.653993
				}
			}
		}
	}
	JOINT rThigh
	{
		OFFSET -5.338403 -1.642589 1.368821
		CHANNELS 3 Xrotation Zrotation Yrotation 
		JOINT rShin
		{
			OFFSET 2.053232 -20.121670 0.000000
			CHANNELS 3 Xrotation Zrotation Yrotation 
			JOINT rFoot
			{
				OFFSET 0.000000 -19.300380 -1.231939
				CHANNELS 3 Xrotation Yrotation Zrotation 
				End Site
				{
					OFFSET 0.000000 -2.463878 4.653993
				}
			}
		}
	}
}
MOTION
Frames: 15
Frame Time: 0.033264
0.000000 43.528500 0.000000 0.000000 0.000000 0.000000 0.000000 0.000000 0.000000 0.000000 0.000000 0.000000 0.000000 0.000000 0.000000 0.000000 0.000000 0.000000 0.000000 0.000000 0.000000 0.000000 0.000000 0.000000 0.000000 0.000000 0.000000 0.000000 0.000000 0.000000 0.000000 0.000000 0.000000 0.000000 0.000000 0.000000 0.000000 0.000000 0.000000 0.000000 0.000000 0.000000 0.000000 0.000000 0.000000 0.000000 0.000000 0.000000 0.000000 0.000000 0.000000 0.000000 0.000000 0.000000 0.000000 0.000000 0.000000 0.000000 0.000000 0.000000 
-22.002388 4.999550 0.000000 -90.001877 0.000000 0.000000 23.080694 -1.157635 -0.195329 17.504135 -2.163984 -0.090778 17.998348 0.000000 0.000000 -55.000603 0.000000 0.000000 17.470062 15.940521 -1.184235 -17.704838 34.736546 35.639599 -44.788860 19.859512 26.275074 -7.002601 0.199413 23.599224 -8.610972 -0.665439 0.337423 76.742165 -30.292879 0.734295 66.999336 -0.003622 20.000938 6.998461 -0.202121 23.599018 -1.018463 19.715057 0.399845 9.288822 -1.438944 -0.146727 32.222782 9.467977 -4.213965 -15.902426 -10.111961 -0.418429 39.185795 2.705257 0.081247 15.318498 13.414724 9.162183 
-22.002388 4.999550 0.000000 -90.001877 0.000000 0.000000 23.080694 -1.157635 -0.195329 17.504135 -2.163984 -0.090778 17.998348 0.000000 0.000000 -54.915192 0.451957 -0.019409 17.470062 15.940521 -1.184235 -17.704840 34.736546 35.639599 -44.788860 19.859512 26.275074 -7.002602 0.199413 23.599226 -8.610972 -0.665439 0.337423 76.742165 -30.292879 0.734295 67.589691 -0.003624 20.000950 7.056342 -0.069318 23.093559 -1.018463 19.715057 0.399845 9.288822 -1.438944 -0.146727 32.222782 9.467977 -4.213965 -16.149681 -10.179224 -0.552668 39.985729 2.697041 0.085196 15.318498 13.414724 9.162183 
-22.002388 4.999550 0.000000 -90.001877 0.000000 0.000000 23.080694 -1.157635 -0.195329 17.504135 -2.163984 -0.090778 17.998348 0.000000 0.000000 -54.829857 0.904350 -0.038163 17.470064 15.940521 -1.184235 -17.704838 34.736546 35.639599 -44.788860 19.859512 26.275074 -7.002601 0.199413 23.599224 -8.610972 -0.665439 0.337423 76.742165 -30.292879 0.734296 68.182220 -0.003628 20.000957 7.113163 0.064252 22.587255 -1.018464 19.715057 0.399845 9.288822 -1.438944 -0.146727 32.222782 9.467978 -4.213965 -16.396963 -10.247094 -0.686715 40.788887 2.688737 0.089045 15.318498 13.414724 9.162183 
-22.002388 4.999550 0.000000 -90.001884 0.000000 0.000000 23.080694 -1.157635 -0.195329 17.504135 -2.163984 -0.090778 17.998348 0.000000 0.000000 -54.744579 1.357162 -0.056261 17.470062 15.940521 -1.184235 -17.704840 34.736546 35.639599 -44.788860 19.859512 26.275074 -7.002602 0.199413 23.599226 -8.610972 -0.665439 0.337423 76.742165 -30.292879 0.734294 68.776932 -0.003630 20.000967 7.168904 0.198578 22.080099 -1.018464 19.715059 0.399845 9.288822 -1.438944 -0.146727 32.222782 9.467977 -4.213965 -16.644270 -10.315568 -0.820565 41.595203 2.680347 0.092791 15.318498 13.414725 9.162183 
-22.002388 4.999550 0.000000 -90.001884 0.000000 0.000000 23.080694 -1.157635 -0.195329 17.504137 -2.163984 -0.090778 17.998352 0.000000 0.000000 -54.659351 1.810380 -0.073703 17.470062 15.940521 -1.184235 -17.704836 34.736546 35.639606 -44.788860 19.859512 26.275076 -7.002601 0.199413 23.599224 -8.610973 -0.665439 0.337423 76.742165 -30.292879 0.734294 69.373772 -0.003632 20.000975 7.223556 0.333646 21.572111 -1.018464 19.715059 0.399845 9.288823 -1.438944 -0.146727 32.222782 9.467977 -4.213965 -16.891602 -10.384650 -0.954212 42.404613 2.671872 0.096433 15.318501 13.414726 9.162183 
-22.002388 4.999550 0.000000 -90.001877 0.000000 0.000000 23.080696 -1.157635 -0.195329 17.504137 -2.163984 -0.090778 17.998348 0.000000 0.000000 -54.574181 2.263988 -0.090488 17.470064 15.940521 -1.184236 -17.704842 34.736549 35.639603 -44.788860 19.859512 26.275074 -7.002602 0.199413 23.599228 -8.610972 -0.665439 0.337423 76.742165 -30.292879 0.734295 69.972763 -0.003635 20.000988 7.277109 0.469443 21.063314 -1.018463 19.715057 0.399845 9.288823 -1.438944 -0.146727 32.222782 9.467977 -4.213965 -17.138952 -10.454333 -1.087654 43.217072 2.663315 0.099967 15.318498 13.414725 9.162183 
-22.002388 4.999550 0.000000 -90.001877 0.000000 0.000000 23.080692 -1.157635 -0.195329 17.504135 -2.163984 -0.090778 17.998348 0.000000 0.000000 -54.489029 2.717970 -0.106616 17.470062 15.940521 -1.184235 -17.704834 34.736542 35.639595 -44.788853 19.859510 26.275072 -7.002600 0.199413 23.599222 -8.610971 -0.665439 0.337423 76.742149 -30.292873 0.734296 70.573860 -0.003637 20.001001 7.329547 0.605956 20.553715 -1.018463 19.715055 0.399845 9.288822 -1.438944 -0.146727 32.222782 9.467977 -4.213965 -17.386314 -10.524617 -1.220885 44.032497 2.654678 0.103392 15.318498 13.414723 9.162183 
-22.002388 4.999550 0.000000 -90.001862 0.000000 0.000000 23.080694 -1.157635 -0.195329 17.504135 -2.163984 -0.090778 17.998346 0.000000 0.000000 -54.403931 3.172311 -0.122087 17.470060 15.940519 -1.184235 -17.704838 34.736546 35.639599 -44.788857 19.859512 26.275074 -7.002601 0.199413 23.599224 -8.610970 -0.665439 0.337423 76.742149 -30.292877 0.734298 71.177032 -0.003638 20.001013 7.380860 0.743172 20.043333 -1.018463 19.715055 0.399845 9.288822 -1.438944 -0.146727 32.222782 9.467976 -4.213965 -17.633686 -10.595502 -1.353902 44.850826 2.645961 0.106706 15.318498 13.414723 9.162183 
-22.002388 4.999550 0.000000 -90.001862 0.000000 0.000000 23.080694 -1.157635 -0.195329 17.504135 -2.163984 -0.090778 17.998348 0.000000 0.000000 -54.318840 3.626996 -0.136898 17.470062 15.940521 -1.184235 -17.704838 34.736546 35.639599 -44.788857 19.859512 26.275074 -7.002600 0.199413 23.599224 -8.610972 -0.665439 0.337423 76.742149 -30.292877 0.734296 71.782257 -0.003642 20.001024 7.431034 0.881076 19.532177 -1.018463 19.715057 0.399845 9.288822 -1.438944 -0.146727 32.222778 9.467976 -4.213964 -17.881067 -10.666984 -1.486699 45.671978 2.637167 0.109904 15.318496 13.414724 9.162183 
-22.002388 4.999550 0.000000 -90.001877 0.000000 0.000000 23.080694 -1.157635 -0.195329 17.504133 -2.163984 -0.090778 17.998348 0.000000 0.000000 -54.233768 4.082009 -0.151050 17.470062 15.940521 -1.184235 -17.704840 34.736542 35.639595 -44.788857 19.859512 26.275074 -7.002601 0.199413 23.599224 -8.610971 -0.665439 0.337423 76.742149 -30.292877 0.734296 72.389511 -0.003645 20.001034 7.480061 1.019654 19.020269 -1.018463 19.715057 0.399845 9.288822 -1.438944 -0.146727 32.222778 9.467977 -4.213965 -18.128448 -10.739061 -1.619273 46.495911 2.628298 0.112987 15.318498 13.414724 9.162183 
-22.002388 4.999550 0.000000 -90.001877 0.000000 0.000000 23.080694 -1.157635 -0.195329 17.504135 -2.163984 -0.090778 17.998348 0.000000 0.000000 -54.148708 4.537335 -0.164541 17.470062 15.940521 -1.184235 -17.704838 34.736542 35.639599 -44.788860 19.859512 26.275074 -7.002600 0.199413 23.599224 -8.610972 -0.665439 0.337423 76.742165 -30.292879 0.734295 72.998787 -0.003646 20.001047 7.527925 1.158893 18.507616 -1.018463 19.715057 0.399845 9.288822 -1.438944 -0.146727 32.222782 9.467977 -4.213965 -18.375826 -10.811732 -1.751620 47.322529 2.619357 0.115951 15.318498 13.414724 9.162183 
-22.002388 4.999550 0.000000 -90.001877 0.000000 0.000000 23.080694 -1.157635 -0.195329 17.504135 -2.163984 -0.090778 17.998348 0.000000 0.000000 -54.063641 4.992958 -0.177370 17.470062 15.940521 -1.184235 -17.704838 34.736546 35.639599 -44.788860 19.859512 26.275074 -7.002601 0.199413 23.599224 -8.610972 -0.665439 0.337423 76.742165 -30.292879 0.734295 73.610039 -0.003647 20.001053 7.574614 1.298776 17.994232 -1.018463 19.715057 0.399845 9.288822 -1.438944 -0.146727 32.222782 9.467977 -4.213965 -18.623203 -10.884995 -1.883734 48.151775 2.610345 0.118794 15.318498 13.414724 9.162183 
-22.002388 4.999550 0.000000 -90.001877 0.000000 0.000000 23.080694 -1.157635 -0.195329 17.504135 -2.163984 -0.090778 17.998348 0.000000 0.000000 -53.978569 5.448862 -0.189536 17.470062 15.940521 -1.184235 -17.704838 34.736546 35.639599 -44.788860 19.859512 26.275074 -7.002601 0.199413 23.599224 -8.610972 -0.665439 0.337423 76.742165 -30.292879 0.734295 74.223259 -0.003649 20.001064 7.620124 1.439290 17.480141 -1.018464 19.715059 0.399845 9.288822 -1.438944 -0.146727 32.222782 9.467977 -4.213965 -18.870567 -10.958850 -2.015611 48.983559 2.601266 0.121515 15.318498 13.414724 9.162183 
-22.002388 4.999550 0.000000 -90.001877 0.000000 0.000000 23.080696 -1.157635 -0.195329 17.504135 -2.163984 -0.090778 17.998348 0.000000 0.000000 -53.893478 5.905031 -0.201037 17.470064 15.940521 -1.184235 -17.704840 34.736546 35.639603 -44.788868 19.859512 26.275078 -7.002601 0.199413 23.599224 -8.610972 -0.665439 0.337423 76.742165 -30.292879 0.734295 74.838417 -0.003652 20.001074 7.664439 1.580419 16.965363 -1.018463 19.715057 0.399845 9.288823 -1.438944 -0.146727 32.222782 9.467977 -4.213965 -19.117922 -11.033291 -2.147249 49.817818 2.592120 0.124111 15.318498 13.414724 9.162183 
